# xmcd CD database file
#
# Track frame offsets:
#	150
#	20515
#	38982
#	59305
#
# Disc length: 1033 seconds
#
# Revision: 1
# Processed by: cddbd v1.5PL3 Copyright (c) Steve Scherf et al.
# Submitted via: CDex 1.51
#
DISCID=2d040704
DTITLE=シャ乱Ｑ - 涙の影
DYEAR=1996
DGENRE=J-POP
TTITLE0=涙の影
TTITLE1=Moving
TTITLE2=涙の影　カラオケ
TTITLE3=Moving　カラオケ
EXTD=YEAR: 1996
EXTT0=
EXTT1=
EXTT2=
EXTT3=
PLAYORDER=
